<svg xmlns="http://www.w3.org/2000/svg"  viewBox="0 0 64 64" width="48px" height="48px" clip-rule="evenodd" baseProfile="basic"><path fill="#060000" fill-rule="evenodd" d="M35,50.618L29,51.5V37h-4v-5.029h4c0,0,0-2.572,0-5.226	c0-1.524,0.605-2.985,1.683-4.062C31.76,21.605,33.221,21,34.745,21H39v4c0,0-0.827,0-1.73,0C36.016,25,35,26.016,35,27.27V32	l6-0.029L39,37h-4V50.618z" clip-rule="evenodd"/><path fill="#060000" d="M32,54c-12.131,0-22-9.869-22-22s9.869-22,22-22s22,9.869,22,22S44.131,54,32,54z M32,14	c-9.925,0-18,8.075-18,18s8.075,18,18,18s18-8.075,18-18S41.925,14,32,14z"/></svg>